<svg xmlns="http://www.w3.org/2000/svg" version="1.1" xmlns:xlink="http://www.w3.org/1999/xlink" xmlns:svgjs="http://svgjs.com/svgjs" width="1000" height="1000"><g transform="matrix(41.666666666666664,0,0,41.666666666666664,42.219708760579465,-0.002016703287722521)"><svg xmlns="http://www.w3.org/2000/svg" version="1.1" xmlns:xlink="http://www.w3.org/1999/xlink" xmlns:svgjs="http://svgjs.com/svgjs" width="22" height="24"><svg width="22" height="24" viewBox="0 0 22 24" fill="none" xmlns="http://www.w3.org/2000/svg">
<path d="M16.0051 10.8459C16.4451 10.4009 16.6926 9.84473 16.6926 9.2051C16.6926 8.59328 16.4726 8.03708 16.0051 7.59212C15.5651 7.14716 15.0426 6.89687 14.4101 6.89687V4.58864C15.0151 4.58864 15.5651 4.36616 16.0051 3.9212C16.4451 3.47625 16.6926 2.92005 16.6926 2.28042C16.6926 1.6686 16.4726 1.1124 16.0051 0.667439C15.5651 0.22248 15.0426 0 14.4101 0H5.30762V4.61645H7.20512V6.86906H5.30762V11.4855H14.4101C15.0151 11.5133 15.5651 11.2908 16.0051 10.8459ZM7.59012 2.30823H14.4101V3.44844C14.4101 3.78215 14.3001 4.06025 14.0801 4.28273C13.8601 4.50521 13.5851 4.61645 13.2826 4.61645H7.59012V2.30823ZM7.59012 6.89687H13.2826C13.5851 6.89687 13.8601 7.00811 14.0801 7.23059C14.3001 7.45307 14.4101 7.73117 14.4101 8.03708V9.17729H7.59012V6.89687Z" fill="black"></path>
<path d="M12.1276 14.795H16.6926C16.6926 14.1554 16.4726 13.627 16.0051 13.1543C15.5651 12.7093 15.0426 12.4868 14.4101 12.4868H7.59012C6.32512 12.4868 5.30762 13.5158 5.30762 14.795H9.87262V17.1033L6.43512 24.0001H9.84512V19.3837L9.87262 19.3559H12.1276V23.9723H15.5376L12.1276 17.0755V14.795Z" fill="black"></path>
<path d="M17.27 2.91992C17.16 3.47612 16.885 3.9767 16.445 4.39385C16.4175 4.42166 16.4175 4.42166 16.39 4.44947C18.7275 6.14588 20.24 8.92687 20.24 12.0416C20.24 15.9072 17.9025 19.2166 14.6025 20.6627L15.3725 22.22C19.25 20.4958 21.9725 16.6024 21.9725 12.0416C22 8.25944 20.13 4.92224 17.27 2.91992Z" fill="black"></path>
<path d="M7.37 20.6627C4.07 19.2444 1.7325 15.9072 1.7325 12.0416C1.7325 9.34407 2.86 6.9246 4.6475 5.22819V2.97559C1.8425 4.9779 0 8.28729 0 12.0416C0 16.6025 2.7225 20.5237 6.6 22.2201L7.37 20.6627Z" fill="black"></path>
<path d="M10.5049 21.4136V23.1656C10.6699 23.1656 10.8349 23.1656 10.9999 23.1656C11.1649 23.1656 11.3299 23.1656 11.4949 23.1656V21.4136C11.3299 21.4136 11.1649 21.4136 10.9999 21.4136C10.8349 21.4136 10.6699 21.4136 10.5049 21.4136Z" fill="black"></path>
</svg></svg></g></svg>